<svg width="16" height="16" viewBox="0 0 16 16" fill="none" xmlns="http://www.w3.org/2000/svg">
<g clip-path="url(#clip0_5_126)">
<rect width="16" height="16" transform="translate(0 -0.00228882)" fill="white"/>
<path d="M4.26667 7.99772L7.46667 10.6644L11.7333 5.33105M8 15.4644C7.01946 15.4644 6.04853 15.2713 5.14263 14.896C4.23673 14.5208 3.41361 13.9708 2.72027 13.2774C2.02692 12.5841 1.47693 11.761 1.1017 10.8551C0.726464 9.94919 0.533333 8.97825 0.533333 7.99772C0.533333 7.01718 0.726464 6.04625 1.1017 5.14035C1.47693 4.23445 2.02692 3.41133 2.72027 2.71799C3.41361 2.02464 4.23673 1.47465 5.14263 1.09942C6.04853 0.724183 7.01946 0.531052 8 0.531052C9.98028 0.531052 11.8795 1.31772 13.2797 2.71799C14.68 4.11826 15.4667 6.01743 15.4667 7.99772C15.4667 9.978 14.68 11.8772 13.2797 13.2774C11.8795 14.6777 9.98028 15.4644 8 15.4644Z" stroke="#26D48C"/>
</g>
<defs>
<clipPath id="clip0_5_126">
<rect width="16" height="16" fill="white" transform="translate(0 -0.00228882)"/>
</clipPath>
</defs>
</svg>
